<svg version="1.1" id="Ebene_1" xmlns="http://www.w3.org/2000/svg" xmlns:xlink="http://www.w3.org/1999/xlink" x="0px"
     y="0px" viewBox="0 0 147 60" style="enable-background:new 0 0 147 60;" xml:space="preserve">
<style type="text/css">
	.st0{fill:#EDEAE5;}
	.st1{fill:#FAB700;}
	.st2{clip-path:url(#SVGID_2_);fill:none;stroke:#FAB700;stroke-width:0.2873;}
	.st3{enable-background:new    ;}
	.st4{fill:#FFFFFF;}
	.st5{fill:#A79E9E;}
</style>
    <title>logo_djumla</title>
    <desc>Created with Sketch.</desc>
    <g>
	<polygon class="st0" points="19,22.4 19,43 122.4,43 122.4,22.4  "/>
        <polygon class="st0" points="29.3,12 29.3,22.4 50,22.4 50,12  "/>
        <polygon class="st0" points="39.6,43 39.6,53.4 50,53.4 50,43  "/>
        <polygon class="st0" points="24.1,48.2 24.1,58.6 34.5,58.6 34.5,48.2  "/>
        <polygon class="st0" points="13.8,43 13.8,53.4 24.1,53.4 24.1,43  "/>
        <polygon class="st0" points="3.4,32.7 3.4,43 13.8,43 13.8,32.7  "/>
        <polygon class="st0" points="92.8,43 92.8,53.4 103.1,53.4 103.1,43  "/>
        <polygon class="st0" points="127.6,27.5 127.6,37.9 137.9,37.9 137.9,27.5  "/>
        <polygon class="st0" points="117.2,12 117.2,22.4 127.6,22.4 127.6,12  "/>
        <polygon class="st0" points="101.7,6.8 101.7,17.2 112.1,17.2 112.1,6.8  "/>
        <polygon class="st0" points="91.4,12 91.4,22.4 101.7,22.4 101.7,12  "/>
        <polygon class="st0" points="81,1.7 81,12 91.4,12 91.4,1.7  "/>
        <polygon class="st0" points="70.7,6.8 70.7,17.2 81,17.2 81,6.8  "/>
        <polygon class="st0" points="50,6.8 50,17.2 60.3,17.2 60.3,6.8  "/>
        <polygon class="st0" points="132.7,1.7 132.7,12 143.1,12 143.1,1.7  "/>
        <polygon class="st1" points="45,48.4 45,58.4 117.1,58.4 117.1,48.4  "/>
        <g>
		<g>
			<defs>
				<rect id="SVGID_1_" x="3.2" y="1.6" width="140.1" height="57"/>
			</defs>
            <clipPath id="SVGID_2_">
				<use xlink:href="#SVGID_1_" style="overflow:visible;"/>
			</clipPath>
            <polygon class="st2" points="45,48.4 45,58.4 117.1,58.4 117.1,48.4    "/>
		</g>
	</g>
        <g class="st3">
		<path class="st4"
              d="M53.4,53.9c-0.2,0.7-0.5,1.5-0.7,2.2h-1.4l-0.9-3.2h0l-0.8,3.2h-1.3c-0.6-1.5-1.1-3-1.5-4.4H48    c0.1,0.6,0.3,1.1,0.4,1.6c0.1,0.5,0.3,1,0.5,1.6l0.8-3.2h1.4l0.9,3.2h0c0.2-0.6,0.3-1.1,0.5-1.6c0.1-0.5,0.2-1,0.4-1.6H54    C53.9,52.4,53.7,53.1,53.4,53.9z"/>
            <path class="st4"
                  d="M58.7,53.9c0,0.1,0,0.2,0,0.3h-2.9c0,0.4,0.1,0.7,0.3,0.9c0.2,0.2,0.5,0.3,0.9,0.3c0.2,0,0.5,0,0.7,0    c0.3,0,0.5-0.1,0.7-0.1l0.1,0.9c-0.3,0.1-0.6,0.2-0.9,0.2c-0.3,0-0.6,0.1-0.9,0.1c-0.8,0-1.3-0.2-1.7-0.6    c-0.4-0.4-0.5-0.9-0.5-1.7c0-0.4,0.1-0.7,0.2-1s0.2-0.5,0.4-0.8s0.4-0.4,0.7-0.5s0.6-0.2,0.9-0.2c0.7,0,1.1,0.2,1.4,0.6    c0.3,0.4,0.5,0.9,0.5,1.5C58.7,53.7,58.7,53.8,58.7,53.9z M57.5,53c0-0.1-0.1-0.2-0.1-0.3c-0.1-0.1-0.2-0.2-0.3-0.2    c-0.1-0.1-0.2-0.1-0.4-0.1c-0.2,0-0.3,0-0.4,0.1s-0.2,0.1-0.3,0.2s-0.1,0.2-0.2,0.3c0,0.1-0.1,0.3-0.1,0.4h1.8    C57.6,53.2,57.6,53.1,57.5,53z"/>
	</g>
        <g class="st3">
		<path class="st4"
              d="M63.6,54.7c-0.1,0.3-0.3,0.6-0.5,0.8c-0.2,0.2-0.5,0.4-0.8,0.5c-0.3,0.1-0.7,0.2-1.1,0.2    c-0.3,0-0.6,0-0.9-0.1s-0.6-0.1-0.9-0.2v-6.3h1.2V52c0.2-0.1,0.4-0.2,0.6-0.3s0.5-0.1,0.7-0.1c0.4,0,0.6,0.1,0.9,0.2    c0.2,0.1,0.4,0.3,0.6,0.5s0.2,0.4,0.3,0.7c0.1,0.3,0.1,0.5,0.1,0.8C63.7,54.1,63.7,54.4,63.6,54.7z M62.5,53.3    c0-0.2-0.1-0.3-0.1-0.4s-0.2-0.2-0.3-0.3c-0.1-0.1-0.3-0.1-0.4-0.1c-0.2,0-0.4,0.1-0.6,0.2s-0.3,0.2-0.5,0.4v2.1    c0.1,0.1,0.2,0.1,0.4,0.1c0.1,0,0.3,0,0.4,0c0.2,0,0.4,0,0.5-0.1c0.1-0.1,0.3-0.2,0.4-0.3s0.2-0.3,0.2-0.5c0-0.2,0.1-0.4,0.1-0.6    C62.5,53.6,62.5,53.5,62.5,53.3z"/>
            <path class="st4"
                  d="M68.7,53.9c0,0.1,0,0.2,0,0.3h-2.9c0,0.4,0.1,0.7,0.3,0.9c0.2,0.2,0.5,0.3,0.9,0.3c0.2,0,0.5,0,0.7,0    c0.3,0,0.5-0.1,0.7-0.1l0.1,0.9c-0.3,0.1-0.6,0.2-0.9,0.2c-0.3,0-0.6,0.1-0.9,0.1c-0.8,0-1.3-0.2-1.7-0.6    c-0.4-0.4-0.5-0.9-0.5-1.7c0-0.4,0.1-0.7,0.2-1s0.2-0.5,0.4-0.8s0.4-0.4,0.7-0.5s0.6-0.2,0.9-0.2c0.7,0,1.1,0.2,1.4,0.6    c0.3,0.4,0.5,0.9,0.5,1.5C68.7,53.7,68.7,53.8,68.7,53.9z M67.5,53c0-0.1-0.1-0.2-0.1-0.3c-0.1-0.1-0.2-0.2-0.3-0.2    c-0.1-0.1-0.2-0.1-0.4-0.1c-0.2,0-0.3,0-0.4,0.1S66,52.6,66,52.7s-0.1,0.2-0.2,0.3c0,0.1-0.1,0.3-0.1,0.4h1.8    C67.5,53.2,67.5,53.1,67.5,53z"/>
            <path class="st4"
                  d="M72.6,56.1v-2.6c0-0.4-0.1-0.6-0.2-0.8s-0.3-0.2-0.5-0.2c-0.2,0-0.4,0.1-0.6,0.2c-0.2,0.1-0.4,0.3-0.5,0.5v3    h-1.2v-4.4h0.9l0.1,0.5c0.2-0.2,0.5-0.4,0.7-0.5c0.2-0.1,0.5-0.2,0.8-0.2c0.3,0,0.5,0,0.7,0.1s0.4,0.2,0.5,0.4s0.2,0.3,0.3,0.5    c0.1,0.2,0.1,0.4,0.1,0.7v2.8H72.6z"/>
            <path class="st4"
                  d="M77.1,56.2c-0.2,0-0.4,0-0.5,0c-0.2,0-0.3,0-0.5-0.1s-0.3-0.1-0.4-0.2c-0.1-0.1-0.2-0.2-0.3-0.4    c-0.1-0.2-0.1-0.4-0.1-0.6v-2.4h-0.7v-0.9h0.7l0.3-1.3h0.8v1.3h1v0.9h-1v2c0,0.2,0,0.4,0.1,0.5c0.1,0.1,0.2,0.2,0.4,0.2h0.5v0.8    C77.4,56.1,77.2,56.1,77.1,56.2z"/>
	</g>
        <g class="st3">
		<path class="st4"
              d="M85,53.9c-0.2,0.7-0.5,1.5-0.7,2.2h-1.4l-0.9-3.2h0L81,56.1h-1.3c-0.6-1.5-1.1-3-1.5-4.4h1.3    c0.1,0.6,0.3,1.1,0.4,1.6c0.1,0.5,0.3,1,0.5,1.6l0.8-3.2h1.4l0.9,3.2h0c0.2-0.6,0.3-1.1,0.5-1.6c0.1-0.5,0.2-1,0.4-1.6h1.1    C85.4,52.4,85.2,53.1,85,53.9z"/>
            <path class="st4"
                  d="M86.6,56.1v-3.6h-0.7v-0.9h1.8v4.4H86.6z M87.7,50.7c-0.1,0.1-0.3,0.2-0.5,0.2s-0.4-0.1-0.5-0.2    c-0.1-0.1-0.2-0.3-0.2-0.5s0.1-0.4,0.2-0.5c0.1-0.1,0.3-0.2,0.5-0.2s0.4,0.1,0.5,0.2s0.2,0.3,0.2,0.5S87.8,50.6,87.7,50.7z"/>
	</g>
        <g class="st3">
		<path class="st4"
              d="M91.5,56.1c-0.2,0-0.5,0.1-0.7,0.1c-0.7,0-1.2-0.2-1.5-0.6c-0.4-0.4-0.5-0.9-0.5-1.6c0-0.4,0.1-0.7,0.2-1    c0.1-0.3,0.3-0.6,0.5-0.8c0.2-0.2,0.4-0.4,0.7-0.5c0.3-0.1,0.6-0.2,0.9-0.2c0.2,0,0.4,0,0.6,0c0.2,0,0.4,0.1,0.5,0.1l-0.2,0.9    c-0.1-0.1-0.2-0.1-0.4-0.1c-0.1,0-0.3,0-0.4,0c-0.3,0-0.6,0.1-0.8,0.4c-0.2,0.2-0.3,0.6-0.3,1c0,0.4,0.1,0.7,0.3,1    c0.2,0.3,0.4,0.4,0.8,0.4c0.2,0,0.3,0,0.5,0c0.2,0,0.3-0.1,0.5-0.2l0.2,0.9C91.9,56,91.7,56.1,91.5,56.1z"/>
            <path class="st4"
                  d="M95.6,56.1L94.6,54l-0.3,0.3v1.8h-1.2v-6.5h1.2v3.5l1.1-1.3l0.2-0.2h1.4l-1.5,1.6l1.7,2.8H95.6z"/>
            <path class="st4"
                  d="M99.2,56.1c-0.1,0-0.2,0-0.3,0c-0.2,0-0.3,0-0.5,0c-0.1,0-0.3-0.1-0.4-0.1s-0.2-0.2-0.2-0.3    c-0.1-0.1-0.1-0.3-0.1-0.5v-5.6h1.2V55c0,0.2,0.1,0.3,0.4,0.3h0.3v0.8C99.4,56.1,99.3,56.1,99.2,56.1z"/>
            <path class="st4"
                  d="M103.6,56.1l-0.1-0.5c-0.2,0.2-0.5,0.4-0.7,0.5c-0.2,0.1-0.5,0.2-0.8,0.2c-0.5,0-0.9-0.2-1.2-0.5    c-0.3-0.3-0.4-0.7-0.4-1.3v-2.8h1.2v2.6c0,0.4,0.1,0.6,0.2,0.8c0.1,0.2,0.3,0.2,0.5,0.2c0.2,0,0.4-0.1,0.6-0.2    c0.2-0.1,0.3-0.3,0.5-0.5v-3h1.2v4.4H103.6z"/>
            <path class="st4"
                  d="M108.7,56.1v-2.6c0-0.4-0.1-0.6-0.2-0.8c-0.1-0.2-0.3-0.2-0.5-0.2c-0.2,0-0.4,0.1-0.6,0.2    c-0.2,0.1-0.3,0.3-0.5,0.5v3h-1.2v-4.4h0.9l0.1,0.5c0.2-0.2,0.5-0.4,0.7-0.5c0.2-0.1,0.5-0.2,0.8-0.2c0.3,0,0.5,0,0.7,0.1    s0.4,0.2,0.5,0.4c0.1,0.2,0.2,0.3,0.3,0.5c0.1,0.2,0.1,0.4,0.1,0.7v2.8H108.7z"/>
            <path class="st4"
                  d="M114.6,57.4c-0.3,0.4-0.9,0.6-1.7,0.6c-0.2,0-0.5,0-0.7,0c-0.2,0-0.5-0.1-0.7-0.1l0-0.9c0.2,0,0.4,0,0.6,0.1    s0.4,0,0.7,0c0.4,0,0.7-0.1,0.8-0.3c0.2-0.2,0.3-0.4,0.3-0.7v-0.5c-0.2,0.1-0.3,0.3-0.6,0.3c-0.2,0.1-0.5,0.1-0.7,0.1    c-0.3,0-0.6-0.1-0.8-0.2s-0.4-0.3-0.6-0.5s-0.3-0.4-0.3-0.7s-0.1-0.5-0.1-0.8c0-0.3,0.1-0.7,0.2-0.9c0.1-0.3,0.3-0.5,0.5-0.7    c0.2-0.2,0.5-0.4,0.8-0.5c0.3-0.1,0.7-0.2,1.1-0.2c0.3,0,0.6,0,0.9,0.1s0.6,0.1,0.9,0.2v4C115.1,56.6,115,57.1,114.6,57.4z     M114,52.7c-0.1,0-0.2-0.1-0.3-0.1c-0.1,0-0.3-0.1-0.4-0.1c-0.2,0-0.4,0-0.5,0.1c-0.1,0.1-0.3,0.2-0.3,0.3    c-0.1,0.1-0.2,0.3-0.2,0.4s-0.1,0.3-0.1,0.5c0,0.2,0,0.4,0,0.5c0,0.2,0.1,0.3,0.1,0.4c0.1,0.1,0.2,0.2,0.3,0.3    c0.1,0.1,0.2,0.1,0.4,0.1c0.2,0,0.4-0.1,0.5-0.2c0.2-0.1,0.3-0.2,0.5-0.4V52.7z"/>
	</g>
        <g class="st3">
		<path class="st5"
              d="M38.7,40.3l-0.3-2.1c-0.6,0.7-1.4,1.3-2.2,1.7s-1.8,0.7-2.9,0.7c-1,0-1.9-0.2-2.6-0.6    c-0.7-0.4-1.3-0.9-1.7-1.5c-0.4-0.6-0.8-1.4-1-2.2c-0.2-0.8-0.3-1.7-0.3-2.6c0-1.1,0.2-2.1,0.5-3c0.3-0.9,0.8-1.8,1.4-2.4    c0.6-0.7,1.4-1.2,2.3-1.6s2-0.6,3.3-0.6c0.5,0,1.1,0,1.6,0.1c0.5,0,1,0.1,1.3,0.2v-6.6h2.6v20.7H38.7z M38,28.6    c-0.4-0.2-0.9-0.4-1.4-0.4c-0.5-0.1-1.1-0.1-1.7-0.1c-1.5,0-2.5,0.5-3.3,1.5s-1.1,2.3-1.1,4c0,0.6,0.1,1.3,0.2,1.9    c0.1,0.6,0.3,1.1,0.6,1.6c0.3,0.5,0.6,0.8,1,1.1c0.4,0.3,0.9,0.4,1.6,0.4c0.8,0,1.5-0.2,2.2-0.6c0.7-0.4,1.3-1,2-1.8V28.6z"/>
            <path class="st5"
                  d="M46.9,45.1c-0.7,0.9-1.7,1.3-3,1.3c-0.6,0-1.2-0.1-1.8-0.2l0.1-2.1h1c0.8,0,1.4-0.2,1.7-0.6    c0.3-0.4,0.5-1.2,0.5-2.3V26.8v-0.6h2.6v14.6C47.9,42.8,47.6,44.2,46.9,45.1z M48.4,21.6c0,0.5-0.2,0.9-0.5,1.3    c-0.3,0.3-0.8,0.5-1.3,0.5c-0.5,0-0.9-0.2-1.2-0.5c-0.3-0.3-0.5-0.8-0.5-1.3c0-0.5,0.2-0.9,0.5-1.2c0.3-0.3,0.7-0.5,1.2-0.5    c0.5,0,0.9,0.2,1.3,0.5C48.2,20.7,48.4,21.1,48.4,21.6z"/>
            <path class="st5"
                  d="M62.5,40.3l-0.4-2c-0.8,0.8-1.6,1.4-2.3,1.8s-1.6,0.6-2.6,0.6c-0.9,0-1.6-0.1-2.3-0.4    c-0.6-0.3-1.1-0.7-1.5-1.2s-0.7-1.1-0.9-1.8c-0.2-0.7-0.3-1.4-0.3-2.2v-8.9H55v8.4c0,1.2,0.2,2.2,0.6,2.9c0.4,0.7,1.1,1,2.2,1    c0.8,0,1.6-0.2,2.2-0.6c0.6-0.4,1.3-1,2-1.8v-9.8h2.6v14.1H62.5z"/>
            <path class="st5"
                  d="M86.5,40.3v-8.4c0-0.6,0-1.2-0.1-1.6c-0.1-0.5-0.2-0.9-0.3-1.2c-0.2-0.3-0.4-0.6-0.7-0.8S84.6,28,84.1,28    c-0.4,0-0.8,0.1-1.1,0.2c-0.3,0.1-0.6,0.3-0.9,0.5c-0.3,0.2-0.6,0.5-0.9,0.8s-0.6,0.6-0.9,1v9.8h-2.6v-8.4c0-0.6,0-1.2-0.1-1.6    c0-0.5-0.2-0.9-0.3-1.2c-0.2-0.3-0.4-0.6-0.7-0.8S75.8,28,75.3,28c-0.4,0-0.8,0.1-1.1,0.2c-0.3,0.1-0.6,0.3-0.9,0.5    c-0.3,0.2-0.6,0.5-0.9,0.8c-0.3,0.3-0.6,0.6-0.9,1v9.8h-2.6V26.2h2l0.4,2c0.7-0.8,1.4-1.4,2.1-1.8s1.5-0.6,2.5-0.6    c1,0,1.8,0.2,2.5,0.6c0.7,0.4,1.2,1.1,1.5,2c0.8-0.9,1.5-1.6,2.2-2c0.7-0.4,1.5-0.6,2.5-0.6c0.9,0,1.6,0.1,2.2,0.4    c0.6,0.3,1,0.7,1.4,1.2c0.3,0.5,0.6,1.1,0.7,1.8c0.1,0.7,0.2,1.4,0.2,2.2v8.8H86.5z"/>
	</g>
        <g class="st3">
		<path class="st5"
              d="M100.9,40.4c-0.3,0-0.5,0.1-0.8,0.1c-1,0-1.7-0.2-2.4-0.6c-0.6-0.4-0.9-1.1-0.9-2.2V19.6h2.6v17.5    c0,0.4,0.1,0.7,0.3,1c0.2,0.2,0.5,0.3,0.9,0.3h1.1v1.9C101.5,40.3,101.2,40.4,100.9,40.4z"/>
            <path class="st5"
                  d="M114.1,40.3l-0.3-1.6c-0.2,0.2-0.5,0.4-0.8,0.7c-0.3,0.2-0.6,0.4-1,0.6s-0.8,0.3-1.2,0.5    c-0.5,0.1-1,0.2-1.6,0.2c-1.5,0-2.7-0.4-3.5-1.1c-0.8-0.7-1.3-1.7-1.3-3c0-0.8,0.2-1.4,0.5-2c0.3-0.6,0.8-1,1.3-1.4    c0.6-0.4,1.3-0.6,2.1-0.8c0.8-0.2,1.7-0.3,2.7-0.3h2.3v-0.7c0-1.2-0.2-2.1-0.7-2.6c-0.5-0.5-1.3-0.8-2.6-0.8    c-1.5,0-2.8,0.3-4.1,0.8l-0.4-2c0.7-0.3,1.4-0.5,2.3-0.6c0.8-0.2,1.7-0.3,2.6-0.3c1,0,1.9,0.1,2.6,0.4s1.3,0.6,1.7,1    s0.7,1,0.9,1.6c0.2,0.6,0.3,1.3,0.3,2v9.5H114.1z M113.4,33.9h-2.5c-1.3,0-2.3,0.2-2.9,0.6c-0.6,0.4-0.9,1-0.9,1.8    c0,0.7,0.2,1.3,0.6,1.7c0.4,0.4,1,0.6,1.9,0.6c0.7,0,1.4-0.2,2-0.5c0.6-0.3,1.2-0.7,1.7-1.3V33.9z"/>
	</g>
</g>
</svg>
